<svg width="20" height="28" viewBox="0 0 20 28" fill="none" xmlns="http://www.w3.org/2000/svg">
<path d="M10 0C7.34784 0 4.8043 1.0325 2.92893 2.87035C1.05357 4.70821 0 7.20088 0 9.8C0 16.8 10 28 10 28C10 28 20 16.8 20 9.8C20 7.20088 18.9464 4.70821 17.0711 2.87035C15.1957 1.0325 12.6522 0 10 0ZM10 13.3C9.29364 13.3 8.60314 13.0947 8.01582 12.7101C7.4285 12.3256 6.97074 11.7789 6.70043 11.1394C6.43012 10.4999 6.35939 9.79612 6.4972 9.11718C6.635 8.43825 6.97515 7.81461 7.47462 7.32513C7.97409 6.83564 8.61046 6.5023 9.30325 6.36725C9.99604 6.2322 10.7141 6.30151 11.3667 6.56642C12.0193 6.83133 12.5771 7.27993 12.9695 7.8555C13.362 8.43108 13.5714 9.10777 13.5714 9.8C13.5714 10.2596 13.4791 10.7148 13.2996 11.1394C13.1201 11.564 12.857 11.9499 12.5254 12.2749C12.1937 12.5999 11.8 12.8577 11.3667 13.0336C10.9334 13.2095 10.469 13.3 10 13.3Z" fill="white"/>
</svg>
