<svg width="18" height="26" viewBox="0 0 18 26" fill="none" xmlns="http://www.w3.org/2000/svg">
<path d="M9 0C6.61305 0 4.32387 0.958747 2.63604 2.66533C0.948211 4.37191 0 6.68653 0 9.1C0 15.6 9 26 9 26C9 26 18 15.6 18 9.1C18 6.68653 17.0518 4.37191 15.364 2.66533C13.6761 0.958747 11.3869 0 9 0ZM9 12.35C8.36427 12.35 7.74283 12.1594 7.21424 11.8023C6.68565 11.4452 6.27367 10.9376 6.03039 10.3437C5.78711 9.74986 5.72345 9.09639 5.84748 8.46596C5.9715 7.83552 6.27763 7.25642 6.72716 6.8019C7.17668 6.34738 7.74941 6.03785 8.37292 5.91245C8.99643 5.78705 9.64272 5.85141 10.2301 6.09739C10.8174 6.34338 11.3194 6.75994 11.6726 7.2944C12.0258 7.82886 12.2143 8.45721 12.2143 9.1C12.2143 9.5268 12.1311 9.94941 11.9696 10.3437C11.8081 10.738 11.5713 11.0963 11.2728 11.3981C10.9744 11.6999 10.62 11.9393 10.2301 12.1026C9.84008 12.2659 9.42211 12.35 9 12.35Z" fill="#4E47F9"/>
</svg>
