<svg width="27" height="20" viewBox="0 0 27 20" fill="none" xmlns="http://www.w3.org/2000/svg">
<path d="M26.0129 7.31337C26.0131 7.21648 25.9872 7.12133 25.9381 7.03783C25.8889 6.95433 25.8183 6.88553 25.7335 6.83861C25.6487 6.79169 25.5529 6.76835 25.4561 6.77104C25.3592 6.77372 25.2649 6.80233 25.1828 6.85387L15.592 13.5252C14.8163 14.0068 13.9214 14.2619 13.0084 14.2619C12.0954 14.2619 11.2006 14.0068 10.4249 13.5252L0.831864 6.85387C0.750328 6.80212 0.656313 6.77338 0.559776 6.77071C0.46324 6.76804 0.367778 6.79154 0.283506 6.8387C0.198568 6.88542 0.127781 6.95415 0.0785821 7.03767C0.029383 7.1212 0.00358891 7.21643 0.0039092 7.31337V16.5011C0.0039092 17.3633 0.346438 18.1902 0.956143 18.8C1.56585 19.4097 2.39279 19.7522 3.25504 19.7522H22.7618C23.6241 19.7522 24.451 19.4097 25.0607 18.8C25.6704 18.1902 26.0129 17.3633 26.0129 16.5011V7.31337Z" fill="#4E47F9"/>
<path d="M26.013 3.50797C26.013 2.64571 25.6704 1.81877 25.0607 1.20907C24.451 0.599364 23.6241 0.256836 22.7618 0.256836H3.25504C2.39279 0.256836 1.56585 0.599364 0.956146 1.20907C0.346441 1.81877 0.00391288 2.64571 0.00391288 3.50797C0.0036622 3.53534 0.0105214 3.56232 0.0238182 3.58625C0.037115 3.61019 0.0563938 3.63026 0.0797722 3.64451L12.1415 11.8634C12.3998 12.0239 12.6978 12.109 13.0019 12.109C13.3061 12.109 13.6041 12.0239 13.8624 11.8634L25.9306 3.64451C25.9549 3.63075 25.9752 3.61095 25.9897 3.58703C26.0041 3.56312 26.0121 3.53588 26.013 3.50797Z" fill="#4E47F9"/>
</svg>
