<svg width="21" height="21" viewBox="0 0 21 21" fill="none" xmlns="http://www.w3.org/2000/svg">
<g clip-path="url(#clip0_0_33)">
<path d="M3.8353 12.1785C4.3117 11.7241 4.9449 11.4707 5.6033 11.4707C6.2616 11.4707 6.8948 11.7241 7.3713 12.1785L7.7563 12.5635C9.8503 10.8051 11.7872 8.86779 13.5452 6.77347L13.1603 6.38847C12.6916 5.91965 12.4283 5.28388 12.4283 4.62097C12.4283 3.95806 12.6916 3.32229 13.1603 2.85347L15.2812 0.732466C15.5134 0.50025 15.789 0.316042 16.0924 0.190364C16.3958 0.0646863 16.7209 0 17.0492 0C17.3776 0 17.7027 0.0646863 18.0061 0.190364C18.3095 0.316042 18.5851 0.50025 18.8173 0.732466L19.9803 1.89547C20.5481 2.46655 20.9019 3.2157 20.9824 4.01699C21.0629 4.81828 20.8651 5.62285 20.4223 6.29547C16.9629 11.5101 12.4948 15.9795 7.2813 19.4405C6.6065 19.877 5.8034 20.0711 5.0038 19.9907C4.2042 19.9104 3.4557 19.5605 2.8813 18.9985L1.7173 17.8355C1.485 17.6033 1.3008 17.3277 1.1751 17.0243C1.0495 16.721 0.9848 16.3958 0.9848 16.0675C0.9848 15.7391 1.0495 15.414 1.1751 15.1106C1.3008 14.8072 1.485 14.5316 1.7173 14.2995L3.8353 12.1785Z" fill="white"/>
</g>
<defs>
<clipPath id="clip0_0_33">
<rect width="21" height="21" fill="white" transform="matrix(-1 0 0 1 21 0)"/>
</clipPath>
</defs>
</svg>
